<?xml version="1.0" encoding="utf-8"?>
<!-- Generator: Adobe Illustrator 21.0.2, SVG Export Plug-In . SVG Version: 6.00 Build 0)  -->
<svg version="1.1" id="Layer_1" xmlns="http://www.w3.org/2000/svg" xmlns:xlink="http://www.w3.org/1999/xlink" x="0px" y="0px"
	 viewBox="0 0 100 70" style="enable-background:new 0 0 100 70;" xml:space="preserve">
<style type="text/css">
	.st0{fill:none;stroke:#EA0D00;stroke-miterlimit:10;}
	.st1{fill:none;stroke:#D22B27;stroke-linecap:round;stroke-miterlimit:10;}
</style>
<path class="st0" d="M53.8,9.3c1.8,0.1,3.5,0.1,5,0.1c1.4,0,3.4,0,5.8-0.1l0.1,1.3l-3.7,1.1c-0.4,0.2-0.7,0.5-0.7,1
	c0,1.3-0.1,2.9-0.1,4.9l0,23.8c0,2.3,0,4.2,0.1,5.8c0,0.4,0.3,0.8,0.8,0.9l3.5,1.1l0.1,1.3c-2.7-0.1-5.1-0.1-7.5-0.1
	c-2.3,0-4.6,0-6.8,0.1l-0.1-1.4l3.4-1c0.5-0.1,0.7-0.5,0.7-1c0-1.5,0.1-3.5,0.1-5.8l0-25.4L40,50.3l-2.1,0.2L23.2,15.9l0,25.4
	c0,2.3,0,4.2,0.1,5.8c0,0.5,0.3,0.9,0.8,1l3.3,1l0.1,1.3c-2.3-0.1-4.3-0.1-5.8-0.1c-1.5,0-3.5,0-6.1,0.1l-0.3-1.3l3.6-1.1
	c0.5-0.2,0.8-0.5,0.8-0.9c0-1.6,0.1-3.5,0.1-5.8l0-23.8c0-2,0-3.6-0.1-4.9c0-0.5-0.3-0.8-0.7-1l-3.6-1.1l-0.1-1.2
	c2.5,0.1,4.5,0.1,6,0.1c1.7,0,3.4,0,5.2-0.1l13.7,32.1L53.8,9.3z"/>
<path class="st0" d="M60.5,41.3c0,1.2,0,2.2,0,3.2s0,1.8,0,2.5c0,0.6,0.3,1,0.8,1.1l3.3,1l0.1,1.3c-2.3-0.1-4.6-0.1-7-0.1
	c-2.4,0-4.8,0-7.3,0.1l-0.1-1.3l3.6-1.1c0.5-0.1,0.8-0.4,0.8-0.9c0-0.8,0-1.7,0-2.6s0-2,0-3.2l0-23.8c0-1,0-1.9,0-2.7s0-1.5,0-2.2
	c0-0.5-0.3-0.8-0.7-1l-3.6-1.1l-0.1-1.3c2.5,0.1,5,0.1,7.4,0.1c0.5,0,1.1,0,1.8,0c0.7,0,1.6-0.1,2.7-0.1c1.1,0,2-0.1,2.7-0.1
	s1.3,0,1.7,0c4.5,0,7.9,0.8,10.1,2.5c2.3,1.7,3.4,4.1,3.4,7.4c0,2.9-0.8,5.3-2.3,7.1c-1.5,1.8-3.9,3.2-7.1,4.2
	c1.2,1.9,2.4,3.7,3.4,5.4c1,1.7,2,3.3,2.9,4.8c0.9,1.5,1.7,2.7,2.5,3.9c0.8,1.2,1.4,2,2.1,2.6c0.3,0.3,0.7,0.6,1,0.9
	c0.3,0.3,0.7,0.4,1,0.6c0.3,0.2,0.7,0.3,1.1,0.4c0.4,0.1,0.8,0.2,1.3,0.4l0.1,1.3c-1.4,0.2-2.6,0.3-3.5,0.3c-0.8,0-1.5,0-2.1-0.1
	s-1.1-0.1-1.6-0.2s-0.9-0.3-1.3-0.5c-0.4-0.2-0.8-0.4-1.1-0.7c-0.8-0.6-1.6-1.5-2.4-2.6c-0.8-1.1-1.6-2.4-2.4-3.9
	c-0.8-1.4-1.7-3-2.6-4.6c-0.9-1.6-2-3.2-3-4.8c-0.3-0.5-0.5-0.8-0.8-1.1c-0.2-0.3-0.4-0.5-0.7-0.6c-0.2-0.2-0.5-0.3-0.9-0.3
	c-0.3-0.1-0.7-0.1-1.3-0.1l-2-0.1C60.3,31.3,60.4,41.3,60.5,41.3z M60.4,28.9c1.2,0.1,2.3,0.1,3.3,0.1c3.4,0,5.9-0.7,7.4-2.2
	c1.5-1.5,2.4-3.7,2.4-6.8c0-3-0.8-5.1-2.3-6.5c-1.5-1.4-4-2.1-7.2-2.1c-0.5,0-1.1,0-1.8,0.1c-0.6,0-1.3,0.1-2,0.2l0,17.2L60.4,28.9z
	"/>
<path class="st0" d="M51.2-12.1"/>
<polygon class="st1" points="49.9,5.6 88.9,5.6 88.9,53 49.9,66 10.9,52 10.9,5.6 29.6,5.6 "/>
</svg>
